<svg xmlns="http://www.w3.org/2000/svg" width="77.053" height="77.053" viewBox="0 0 77.053 77.053">
	<path d="M77.047 38.53c0 21.276-17.247 38.523-38.523 38.523S.001 59.806.001 38.53 17.248.006 38.524.006 77.047 17.254 77.047 38.53" fill="#d91e25"/>
	<path d="M61.033 30.366c-.04-.033-.094-.037-.133-.004-.018.015-1.81 1.418-3.314 1.642-.097-.002-.16-.035-.202-.091-.101-.146-.011-.534.025-.724.032-.167.043-.235-.032-.267-.072-.03-.123.042-.158.092-.454.663-.601.932-1.317 1.546l.024-.012c-.642.396-1.537.847-2.142.746a.65.65 0 0 1-.496-.35c-.274-.515-.284-1.88 1.275-5.44a.11.11 0 0 0-.029-.119.11.11 0 0 0-.124-.005c-.007.005-.737.502-1.553.363-1.197-.2-1.993-1.659-2.31-4.21a.1.1 0 0 0-.084-.09.1.1 0 0 0-.106.056c-1.14 2.304-2.375 3.417-3.57 3.213-.818-.137-1.344-.845-1.346-.854a.1.1 0 0 0-.118-.035.1.1 0 0 0-.066.102c.293 3.874-.162 5.16-.597 5.556a.65.65 0 0 1-.583.166c-.628-.108-1.36-.888-1.833-1.482-.434-.762-.49-1.073-.69-1.828-.019-.054-.04-.142-.121-.135-.082.002-.093.069-.116.238-.03.19-.074.588-.22.694q-.089.06-.233.013c-1.324-.733-2.522-2.594-2.537-2.614-.023-.044-.076-.06-.125-.042a.11.11 0 0 0-.06.117c.942 4.313.636 5.746.211 6.193-.139.15-.325.205-.545.168-.267-.046-.495-.217-.495-.217a.105.105 0 0 0-.137.008.106.106 0 0 0-.01.135l.032.042c.004.016.01.027.024.042 0 0 .02.025.056.062 1.122 1.494 1.744 2.666 1.847 3.484.027.545-.17.937-.601 1.208-.572.24-1.358.126-1.513.099l-.04-.007a.11.11 0 0 0-.105.04q-.032.057-.003.113c.067.115 1.685 2.813 3.94 3.522a12 12 0 0 0 1.058.231c1.766.302 3.65.224 4.852.068-1.064 2.739-3.899 3.258-3.899 3.258-.173.043-.303.056-.414.082l-.013.001c-.185.047-.247.245-.42.602l-.368.75c-.285.575.326.673.67.604l-.015.015c.611-.16 1.247-.375 1.788-.623a7.2 7.2 0 0 0 2.087-1.434 6.23 6.23 0 0 0 1.687-3.1l.04.007c1.072.543 2.934 1.285 4.794 1.604.247.039.494.074.724.098q.16.025.356.031c2.362.076 4.683-1.956 4.78-2.047a.09.09 0 0 0 .03-.103.09.09 0 0 0-.081-.07s-.007 0-.043-.01c-.151-.025-.934-.175-1.394-.592-.32-.397-.377-.833-.173-1.333.368-.743 1.342-1.646 2.89-2.68l.082-.045a.2.2 0 0 0 .034-.031l.044-.03a.1.1 0 0 0 .034-.128.1.1 0 0 0-.123-.055c-.001 0-.27.088-.541.043a.59.59 0 0 1-.461-.343c-.253-.56-.07-2.014 2.243-5.773a.1.1 0 0 0-.018-.131 M48.75 50.372l-1.267-.408c-.709-.202-1.419 4.511-6.388 4.511H36.99c-2.787 0-3.701-.962-3.701-5.22V25.422c0-1.925 1.318-2.738 2.586-2.992.356-.1.762-.153.962-.709l.305-.86c.254-.764-.252-.862-.658-.862H23.606c-.454 0-.709.152-.862.402l-.405 1.014c-.202.407-.102.814.558.914 2.482.557 3.244.912 3.244 3.093v26.214c0 1.926-1.316 2.739-2.583 2.991-.356.102-.762.153-.966.711l-.304.86c-.253.762.253.864.66.864h23.775c1.367 0 2.33-.457 2.33-1.268v-4.966c0-.204-.1-.407-.302-.456" fill="white"/>
</svg>
