<svg xmlns="http://www.w3.org/2000/svg" width="375.84" height="151.107" viewBox="0 0 375.84 151.107">
	<path id="logotext" d="M214.691-.002a.34.34 0 0 0-.353.19c-3.781 7.646-7.877 11.338-11.844 10.66-2.713-.454-4.455-2.806-4.465-2.834a.33.33 0 0 0-.392-.118.33.33 0 0 0-.219.34c.972 12.852-.535 17.12-1.979 18.434-.542.502-1.177.68-1.937.55-2.081-.356-4.507-2.945-6.082-4.915-1.436-2.525-1.628-3.561-2.291-6.067-.06-.182-.135-.469-.399-.449-.272.01-.308.232-.388.795-.098.632-.244 1.95-.727 2.297-.2.133-.446.157-.775.045-4.39-2.434-8.363-8.605-8.412-8.676a.33.33 0 0 0-.414-.135.34.34 0 0 0-.202.387c3.123 14.307 2.11 19.067.702 20.545-.464.495-1.08.684-1.81.564-.889-.157-1.643-.722-1.643-.722a.343.343 0 0 0-.452.027c-.118.121-.138.318-.037.445l.11.143a.3.3 0 0 0 .076.135s.071.083.187.209c3.726 4.955 5.79 8.84 6.13 11.554.087 1.81-.564 3.112-1.997 4.01-1.895.802-4.506.42-5.02.328l-.132-.017a.36.36 0 0 0-.348.13.37.37 0 0 0-.01.372c.223.385 5.595 9.335 13.073 11.69a11 11 0 0 0 1.129.288 39 39 0 0 0 2.384.477c5.858 1.001 12.106.745 16.094.226-3.53 9.085-12.935 10.805-12.935 10.805-.572.144-1.007.188-1.375.273q-.022.003-.04.008c-.617.152-.823.812-1.4 1.994l-1.215 2.49c-.945 1.908 1.082 2.235 2.223 2.004l-.047.047c2.025-.53 4.132-1.244 5.928-2.066 2.53-1.168 4.928-2.744 6.926-4.754 2-2 3.577-4.41 4.597-6.988.427-1.076.748-2.182.996-3.3l.133.02c3.556 1.805 9.735 4.268 15.904 5.323.824.133 1.643.246 2.409.324.346.055.749.096 1.175.105 7.84.249 15.542-6.49 15.862-6.793.1-.077.144-.22.101-.336a.32.32 0 0 0-.27-.24s-.023 0-.142-.029c-.503-.086-3.099-.581-4.623-1.963-1.063-1.319-1.255-2.77-.578-4.424 1.221-2.469 4.453-5.46 9.588-8.89.172-.09.273-.153.273-.153a.5.5 0 0 0 .112-.101l.146-.096a.344.344 0 0 0 .115-.432.333.333 0 0 0-.406-.18c-.008 0-.897.291-1.797.145-.73-.126-1.246-.516-1.531-1.138-.84-1.857-.23-6.682 7.445-19.155a.345.345 0 0 0-.062-.437.34.34 0 0 0-.44-.012c-.064.05-6.007 4.704-10.994 5.447-.325-.005-.533-.112-.672-.302-.336-.484-.04-1.773.084-2.403.104-.55.142-.775-.11-.883-.236-.099-.406.144-.52.305-1.509 2.202-1.998 3.093-4.372 5.127l.078-.037c-2.126 1.312-5.096 2.811-7.103 2.475-.752-.128-1.293-.494-1.645-1.155-.916-1.716-.944-6.241 4.225-18.052a.34.34 0 0 0-.092-.397.35.35 0 0 0-.412-.018c-.027.016-2.445 1.667-5.154 1.206-3.967-.664-6.612-5.504-7.66-13.973a.34.34 0 0 0-.282-.299M3.43 58.684c-1.127 0-1.756.379-2.133.998l-1.004 2.51c-.498 1.005-.249 2.014 1.383 2.261C7.82 65.833 9.7 66.71 9.7 72.105v64.875c0 4.766-3.256 6.775-6.392 7.403-.879.25-1.885.377-2.39 1.76l-.751 2.128c-.625 1.884.626 2.137 1.633 2.137h58.838c3.381 0 5.767-1.129 5.767-3.137V134.98c0-.504-.249-1.01-.752-1.13l-3.134-1.005c-1.757-.504-3.512 11.162-15.811 11.162h-10.16c-6.896 0-9.156-2.38-9.156-12.918V72.105c0-4.762 3.26-6.775 6.398-7.402.878-.25 1.882-.379 2.379-1.754l.756-2.13c.628-1.889-.625-2.135-1.627-2.135zm339.681 0c-.752 0-1.502-.002-1.88 1.004l-1.131 2.507c-.748 1.51.5 2.01 1.755 2.387 5.774 1.253 7.659 2.13 7.659 7.523v31.14h.013v32.151l-.01-.007v.207h.01v7.045l.022.005v3.862c0 2.513 1 4.015 3.512 3.892h14.416l.021.008h4.969c1.13 0 1.762-.376 2.133-1.006l1.005-2.51c.503-1 .249-2.003-1.376-2.257-6.151-1.378-8.034-2.25-8.034-7.655V61.822c0-2.509-1.128-3.138-3.134-3.138zm-245.74.058c-.753 0-1.501 0-1.879 1l-1.127 2.5c-.745 1.505.503 2.001 1.752 2.375 5.753 1.251 7.631 2.128 7.631 7.504v31.52h.016v21.851l.013 10.067-.002-.004v.209h.002l.004 1.49h.002v5.553h.002v.172c0 .07.015.129.016.197v3.498c0 2.512 1.004 4.016 3.51 3.892h10.244v.03l10.855.46h.014c.447.031.893.051 1.33.051q8.979 0 12.69-1.408 5.639-2.081 9.982-5.568 4.341-3.488 6.717-7.125 3.263-5.046 4.712-10.352 1.446-5.307 1.446-9.535 0-6.53-1.783-11.058-2.822-7.125-6.938-11.096h-.002q-4.116-3.968-8.756-5.822-4.635-1.856-11.984-1.858-2.745.001-6.309.817-2.003.445-5.343 2.04c-2.227 1.065-2.748 1.771-3.245 2.116-.216.158-.401.31-.609.465v-7.744h.043V61.87c0-2.5-1.12-3.129-3.123-3.129zm-17.39 1.34c-5.019 0-9.284 4.143-9.284 9.281 0 5.145 4.264 9.285 9.408 9.285 4.893 0 9.157-4.511 9.157-9.285 0-5.017-4.263-9.281-9.282-9.281m232.205 24.639c-17.327 0-26.879 5.442-27.323 12.351-.048.743.047 1.395.256 1.971.113.318.27.601.445.873l-.033-.006q.258.499.578.945c.968 1.148 2.184 2.038 3.557 2.483.056.023.132.044.193.064l.164.053c1.363.413 3.965.55 6.225-.877q.305-.172.578-.394c.036-.026.074-.046.11-.075l-.026.006c.952-.81 1.622-2.052 2.123-3.627 1.948-6.11 7.75-8.278 10.487-8.41 4.094-.199 8.578 2.288 8.658 10.504v6.957c-6.076 3.486-15.514 6.2-24.043 8.916-10.347 3.36-13.576 8.79-13.576 16.031 0 9.828 6.72 18.621 19.394 18.621 7.75 0 13.869-4.49 18.25-7.462v3.033c0 2.512 1.003 4.015 3.51 3.892h17.814c1.128 0 2.008-.123 2.508-1.004l.627-2.382c1.005-2.51-1.88-2.132-3.764-3.764h-.002c-2.88-1.133-4.011-2.136-4.011-6.649v-31.208c0-.217-.024-.409-.03-.62l.02-2.302c0-6.762-1.093-17.92-22.69-17.92M202.3 86.178c-18.568 0-32.117 12.544-32.117 33.488 0 17.193 10.232 31.373 32.56 31.373 4.893 0 11.79-1.13 14.678-2.508 1.379-.757 2.008-2.008 2.635-3.136l4.011-8.153c1.006-2.01-2.631-3.639-3.884-2.512-4.394 4.767-8.407 7.653-15.81 7.653-12.672 0-16.5-10.54-16.5-22.832h37.255c1.757 0 2.887-2.765 2.887-5.022 0-16.815-8.657-28.351-25.715-28.351m71.23.248c-4.908 0-8.95 3.119-16.54 10.564v-6.648c0-2.633-1.63-2.508-3.01-2.508h-20.198c-.75 0-1.503 0-1.877 1.002l-1.13 2.51c-.754 1.504.502 2.007 1.755 2.384 5.77 1.253 7.653 2.132 7.653 7.524v35.875c0 4.768-3.263 6.774-6.4 7.402-.878.25-1.88.376-2.384 1.756l-.752 2.133c-.628 1.88.63 2.133 1.631 2.133h32.866c1.505 0 2.257-.379 2.76-1.006l1.378-2.508c.627-1.003.376-2.006-1.883-2.258-8.026-1.38-10.535-2.258-10.535-7.652v-15.3c0-3.432-.175-6.644.121-9.661v1.353c0-.957.057-1.849.162-2.681q.006-.048.016-.098l.02-.125c.328-2.016.938-3.943 2.03-5.787 1.265-1.927 2.844-2.977 4.136-3.287 1.977-.478 4.333-.357 6.109.41 1.465.632 2.926 1.527 4.709 1.527 2.163 0 4.071-1.145 5.473-2.798 1.272-1.782 1.78-4.202 1.78-6.49 0-4.33-2.546-7.766-7.89-7.766M65.32 87.512c-.754 0-1.507 0-1.878 1.004l-1.136 2.511c-.75 1.503.506 2.008 1.757 2.383 5.768 1.25 7.653 2.128 7.653 7.524v2.308h.017v32.154l-.007-.007v.207h.007v7.045l.018.005v3.862c0 2.512 1.003 4.015 3.51 3.892h14.422l.023.008h4.97c1.126 0 1.755-.376 2.134-1.006l1.001-2.51c.505-1 .253-2.003-1.378-2.257-6.149-1.378-8.028-2.252-8.028-7.655V90.648c0-2.509-1.131-3.136-3.136-3.136zm136.728 4.812c5.396 0 11.164 3.641 11.164 14.926 0 3.513-1.507 5.52-4.895 5.52h-20.445c0-10.538 5.27-20.446 14.176-20.446m-73.02 4.166c3.515 0 6.765.975 9.76 2.928q4.488 2.934 6.977 8.906 2.485 5.974 2.484 12.057.001 2.897-.668 7.795-.519 3.565-2.521 7.865c-.843 1.83-2.13 3.565-3.862 5.195q-1.705 1.634-4.969 2.97c-2.17.886-4.344 1.33-6.513 1.333v-.008q-3 0-5.697-1.875-2.7-1.874-3.327-4.422c-.127-.516-.23-1.377-.318-2.529v-6.066c-.015-.266-.03-.53-.043-.813v-28.392l.043-.038v-2.65c.301-.133.608-.268.936-.404q4.453-1.853 7.718-1.852m189.149 16.864v18.613c-.188 8.037-5.835 10.217-9.819 10.217-6.078 0-10.343-4.524-10.343-11.766 0-6.205 2.323-9.05 7.498-11.508 4.777-2.323 9.688-4.003 12.664-5.556"/>
</svg>
