<svg xmlns="http://www.w3.org/2000/svg" width="32" height="32" viewBox="0 0 32 32">
	<path id="maple-leaf" d="M31.955 9.51c-.052-.044-.124-.05-.176-.007-.024.021-2.391 1.874-4.378 2.17-.13-.002-.212-.045-.267-.12-.134-.193-.015-.706.033-.957.041-.22.056-.31-.043-.353-.095-.039-.162.057-.208.122-.601.876-.795 1.233-1.741 2.043l.032-.016c-.848.524-2.032 1.12-2.83.986a.86.86 0 0 1-.656-.461c-.362-.681-.375-2.484 1.685-7.188a.14.14 0 0 0-.038-.159.14.14 0 0 0-.164-.006c-.01.006-.973.664-2.052.48C19.571 5.779 18.518 3.852 18.1.48a.134.134 0 0 0-.112-.12.13.13 0 0 0-.14.075c-1.506 3.045-3.137 4.516-4.717 4.246-1.08-.18-1.775-1.117-1.779-1.128a.13.13 0 0 0-.154-.047c-.058.023-.095.077-.089.135.388 5.12-.213 6.818-.788 7.342-.216.2-.468.268-.77.219-.83-.143-1.796-1.174-2.423-1.958-.572-1.007-.648-1.418-.912-2.416-.024-.072-.053-.187-.16-.179-.108.004-.122.091-.153.315-.039.253-.098.778-.29.917-.08.052-.18.06-.308.018-1.75-.97-3.333-3.428-3.352-3.455a.13.13 0 0 0-.165-.055.14.14 0 0 0-.08.155c1.245 5.698.84 7.592.28 8.182-.184.198-.43.272-.721.223-.353-.061-.654-.287-.654-.287a.14.14 0 0 0-.18.01c-.047.049-.054.128-.015.178l.044.057c.005.02.013.035.03.055 0 0 .028.033.074.082 1.483 1.974 2.306 3.522 2.442 4.603.035.72-.226 1.239-.795 1.597-.755.317-1.795.166-1.999.13-.033-.003-.054-.009-.054-.009a.14.14 0 0 0-.137.052.15.15 0 0 0-.005.15c.09.153 2.227 3.717 5.206 4.654.162.051.318.089.45.115.305.069.622.138.948.19 2.333.399 4.823.297 6.41.09-1.404 3.619-5.15 4.305-5.15 4.305-.229.057-.4.074-.547.109h-.018c-.244.063-.326.324-.555.796l-.485.99c-.377.761.43.89.886.799l-.021.02a15 15 0 0 0 2.362-.823c1.009-.467 1.963-1.094 2.758-1.895a8.23 8.23 0 0 0 2.228-4.096l.053.009c1.417.717 3.877 1.698 6.335 2.12.327.05.653.098.957.128.14.021.3.038.47.042 3.12.1 6.188-2.584 6.315-2.705a.12.12 0 0 0 .04-.136.12.12 0 0 0-.106-.093s-.01 0-.058-.012c-.2-.034-1.233-.232-1.84-.783-.424-.524-.5-1.1-.229-1.761.485-.983 1.772-2.175 3.817-3.541l.11-.06a.2.2 0 0 0 .044-.041l.058-.038a.134.134 0 0 0 .045-.171.13.13 0 0 0-.162-.072c-.002 0-.356.115-.715.057a.77.77 0 0 1-.61-.454c-.333-.739-.09-2.66 2.965-7.628a.134.134 0 0 0-.024-.173"/>
</svg>
